TITLE ""
FILE "DISC2Track19.mp3" MP3
  TRACK 01 AUDIO
    TITLE "DISC2Track19_01"
    INDEX 01 00:00:00
  TRACK 02 AUDIO
    TITLE "DISC2Track19_02"
    INDEX 01 00:01:49
  TRACK 03 AUDIO
    TITLE "DISC2Track19_03"
    INDEX 01 00:01:65
  TRACK 04 AUDIO
    TITLE "DISC2Track19_04"
    INDEX 01 00:05:57
  TRACK 05 AUDIO
    TITLE "DISC2Track19_05"
    INDEX 01 00:09:41
  TRACK 06 AUDIO
    TITLE "DISC2Track19_06"
    INDEX 01 00:13:03
  TRACK 07 AUDIO
    TITLE "DISC2Track19_07"
    INDEX 01 00:13:17
  TRACK 08 AUDIO
    TITLE "DISC2Track19_08"
    INDEX 01 00:16:39
  TRACK 09 AUDIO
    TITLE "DISC2Track19_09"
    INDEX 01 00:20:05
  TRACK 10 AUDIO
    TITLE "DISC2Track19_10"
    INDEX 01 00:23:25
  TRACK 11 AUDIO
    TITLE "DISC2Track19_11"
    INDEX 01 00:23:41
  TRACK 12 AUDIO
    TITLE "DISC2Track19_12"
    INDEX 01 00:26:53
  TRACK 13 AUDIO
    TITLE "DISC2Track19_13"
    INDEX 01 00:29:02
  TRACK 14 AUDIO
    TITLE "DISC2Track19_14"
    INDEX 01 00:30:70
  TRACK 15 AUDIO
    TITLE "DISC2Track19_15"
    INDEX 01 00:31:11
  TRACK 16 AUDIO
    TITLE "DISC2Track19_16"
    INDEX 01 00:36:02
  TRACK 17 AUDIO
    TITLE "DISC2Track19_17"
    INDEX 01 00:40:25
  TRACK 18 AUDIO
    TITLE "DISC2Track19_18"
    INDEX 01 00:44:17
  TRACK 19 AUDIO
    TITLE "DISC2Track19_19"
    INDEX 01 00:44:31
  TRACK 20 AUDIO
    TITLE "DISC2Track19_20"
    INDEX 01 00:48:25
  TRACK 21 AUDIO
    TITLE "DISC2Track19_21"
    INDEX 01 00:52:36
  TRACK 22 AUDIO
    TITLE "DISC2Track19_22"
    INDEX 01 00:56:13
  TRACK 23 AUDIO
    TITLE "DISC2Track19_23"
    INDEX 01 00:56:26
  TRACK 24 AUDIO
    TITLE "DISC2Track19_24"
    INDEX 01 00:59:62
  TRACK 25 AUDIO
    TITLE "DISC2Track19_25"
    INDEX 01 01:03:03
  TRACK 26 AUDIO
    TITLE "DISC2Track19_26"
    INDEX 01 01:05:65
  TRACK 27 AUDIO
    TITLE "DISC2Track19_27"
    INDEX 01 01:06:07
  TRACK 28 AUDIO
    TITLE "DISC2Track19_28"
    INDEX 01 01:10:23
  TRACK 29 AUDIO
    TITLE "DISC2Track19_29"
    INDEX 01 01:13:60
  TRACK 30 AUDIO
    TITLE "DISC2Track19_30"
    INDEX 01 01:17:01
  TRACK 31 AUDIO
    TITLE "DISC2Track19_31"
    INDEX 01 01:17:13
  TRACK 32 AUDIO
    TITLE "DISC2Track19_32"
    INDEX 01 01:20:19
  TRACK 33 AUDIO
    TITLE "DISC2Track19_33"
    INDEX 01 01:23:27
  TRACK 34 AUDIO
    TITLE "DISC2Track19_34"
    INDEX 01 01:26:00
  TRACK 35 AUDIO
    TITLE "DISC2Track19_35"
    INDEX 01 01:26:16
  TRACK 36 AUDIO
    TITLE "DISC2Track19_36"
    INDEX 01 01:27:74
  TRACK 37 AUDIO
    TITLE "DISC2Track19_37"
    INDEX 01 01:30:06
  TRACK 38 AUDIO
    TITLE "DISC2Track19_38"
    INDEX 01 01:31:58
  TRACK 39 AUDIO
    TITLE "DISC2Track19_39"
    INDEX 01 01:31:68
  TRACK 40 AUDIO
    TITLE "DISC2Track19_40"
    INDEX 01 01:36:14
  TRACK 41 AUDIO
    TITLE "DISC2Track19_41"
    INDEX 01 01:39:64
  TRACK 42 AUDIO
    TITLE "DISC2Track19_42"
    INDEX 01 01:43:04
  TRACK 43 AUDIO
    TITLE "DISC2Track19_43"
    INDEX 01 01:43:22
  TRACK 44 AUDIO
    TITLE "DISC2Track19_44"
    INDEX 01 01:46:13
  TRACK 45 AUDIO
    TITLE "DISC2Track19_45"
    INDEX 01 01:48:74
  TRACK 46 AUDIO
    TITLE "DISC2Track19_46"
    INDEX 01 01:51:31
